<svg width="213" height="47" viewBox="0 0 213 47" fill="none" xmlns="http://www.w3.org/2000/svg">
<path d="M0.0703125 11.1602C2.71875 11.2539 4.80469 11.3008 6.32812 11.3008C8.54297 11.3008 10.5234 11.2539 12.2695 11.1602C12.3164 11.3477 12.3398 11.4766 12.3398 11.5469C12.3398 11.6758 12.3164 11.8223 12.2695 11.9863C10.7227 12.0332 9.67383 12.1504 9.12305 12.3379C8.58398 12.5137 8.31445 12.8242 8.31445 13.2695C8.31445 13.2813 8.39648 13.5742 8.56055 14.1484L15.873 31.1289H16.0488L22.9043 13.9199C22.9746 13.7441 23.0098 13.5156 23.0098 13.2344C23.0098 12.8477 22.7988 12.5723 22.377 12.4082C21.9551 12.2441 21.2285 12.1035 20.1973 11.9863C20.1504 11.7285 20.127 11.5703 20.127 11.5117C20.127 11.418 20.1504 11.3008 20.1973 11.1602C21.709 11.2305 23.0742 11.2656 24.293 11.2656C25.6289 11.2656 26.9648 11.2305 28.3008 11.1602C28.3477 11.3008 28.3711 11.418 28.3711 11.5117C28.3711 11.6992 28.3477 11.8574 28.3008 11.9863C27.4219 12.0684 26.6895 12.25 26.1035 12.5312C25.5293 12.8008 25.084 13.2637 24.7676 13.9199L15.2578 37.5098H14.4316L4.21875 14.1484C3.67969 12.918 2.29688 12.1973 0.0703125 11.9863C0.0234375 11.7754 0 11.6289 0 11.5469C0 11.4297 0.0234375 11.3008 0.0703125 11.1602ZM43.3125 27.6836H33.7324C33.6855 28.3867 33.6621 29.0078 33.6621 29.5469C33.6973 31.293 34.207 32.6934 35.1914 33.748C36.1758 34.791 37.4941 35.3125 39.1465 35.3125C39.5918 35.3125 40.0078 35.2656 40.3945 35.1719C40.7812 35.0664 41.0977 34.9492 41.3438 34.8203C41.6016 34.6914 41.8652 34.5039 42.1348 34.2578C42.4043 34.0117 42.5977 33.8184 42.7148 33.6777C42.8438 33.5254 43.0137 33.3027 43.2246 33.0098C43.4355 32.7051 43.5762 32.5117 43.6465 32.4297C43.9277 32.4883 44.1562 32.6172 44.332 32.8164C43.7461 34.3867 42.8379 35.5645 41.6074 36.3496C40.377 37.123 39.041 37.5098 37.5996 37.5098C36.8848 37.5098 36.1875 37.416 35.5078 37.2285C34.8398 37.0527 34.1895 36.7598 33.5566 36.3496C32.9238 35.9395 32.373 35.4355 31.9043 34.8379C31.4355 34.2285 31.0605 33.4727 30.7793 32.5703C30.498 31.6562 30.3574 30.6484 30.3574 29.5469C30.3574 27.0742 31.1133 25.0352 32.625 23.4297C34.1367 21.8242 35.9941 21.0215 38.1973 21.0215C39.1699 21.0215 40.0137 21.1621 40.7285 21.4434C41.4551 21.7129 42.0176 22.082 42.416 22.5508C42.8262 23.0195 43.125 23.5352 43.3125 24.0977C43.5117 24.6484 43.6113 25.2402 43.6113 25.873C43.6113 26.459 43.5117 27.0625 43.3125 27.6836ZM37.7754 22.1641C36.9668 22.1641 36.1992 22.5215 35.4727 23.2363C34.7578 23.9512 34.2422 25.0352 33.9258 26.4883H40.2539C40.3711 26.043 40.4297 25.6562 40.4297 25.3281C40.4297 24.4141 40.2188 23.6582 39.7969 23.0605C39.375 22.4629 38.7012 22.1641 37.7754 22.1641ZM56.4258 36.2793C56.4961 36.4199 56.5312 36.5664 56.5312 36.7188C56.5312 36.8359 56.4961 36.9648 56.4258 37.1055C54.8789 37.0352 53.3789 37 51.9258 37C50.4961 37 49.0078 37.0352 47.4609 37.1055C47.4141 36.918 47.3906 36.7891 47.3906 36.7188C47.3906 36.6602 47.4141 36.5137 47.4609 36.2793C47.8477 36.2324 48.1641 36.1855 48.4102 36.1387C48.6562 36.0801 48.9609 35.9922 49.3242 35.875C49.6875 35.7578 49.9629 35.5938 50.1504 35.3828C50.3379 35.1602 50.4375 34.8965 50.4492 34.5918C50.4961 33.4316 50.5195 32.0254 50.5195 30.373C50.5195 29.8223 50.5137 28.8848 50.502 27.5605C50.4902 26.2363 50.4844 25.0762 50.4844 24.0801C49.8164 23.6699 48.6914 23.4297 47.1094 23.3594C47.0625 23.1719 47.0391 23.0254 47.0391 22.9199C47.0391 22.8496 47.0625 22.7207 47.1094 22.5332C49.3828 22.2988 51.3633 21.8184 53.0508 21.0918C53.3438 21.209 53.5488 21.3613 53.666 21.5488V24.3262C54.8027 23.3301 55.8926 22.5332 56.9355 21.9355C57.9785 21.3262 59.0332 21.0215 60.0996 21.0215C61.4355 21.0215 62.3789 21.3965 62.9297 22.1465C63.4922 22.8965 63.7852 24.0684 63.8086 25.6621L63.9844 34.5918C63.9961 34.8965 64.084 35.1602 64.248 35.3828C64.4238 35.5938 64.6699 35.7578 64.9863 35.875C65.3145 35.9922 65.584 36.0801 65.7949 36.1387C66.0059 36.1855 66.2812 36.2324 66.6211 36.2793C66.668 36.5137 66.6914 36.6719 66.6914 36.7539C66.6914 36.8477 66.668 36.9648 66.6211 37.1055C65.1094 37.0352 63.7148 37 62.4375 37C61.1953 37 59.8184 37.0352 58.3066 37.1055C58.2598 36.918 58.2363 36.7773 58.2363 36.6836C58.2363 36.6016 58.2598 36.4668 58.3066 36.2793C58.6113 36.2324 58.8633 36.1855 59.0625 36.1387C59.2734 36.0801 59.5078 35.9922 59.7656 35.875C60.0352 35.7578 60.2344 35.5938 60.3633 35.3828C60.5039 35.1602 60.5742 34.8965 60.5742 34.5918L60.6094 26.2422C60.6094 24.1211 59.9707 23.0605 58.6934 23.0605C57.498 23.0605 55.8223 23.8574 53.666 25.4512C53.666 28.8613 53.7129 31.9082 53.8066 34.5918C53.8184 34.8965 53.9062 35.1602 54.0703 35.3828C54.2461 35.5938 54.4922 35.7578 54.8086 35.875C55.125 35.9922 55.3887 36.0801 55.5996 36.1387C55.8105 36.1855 56.0859 36.2324 56.4258 36.2793ZM73.9336 18.0332C74.0508 17.9863 74.1855 17.9629 74.3379 17.9629C74.4902 17.9629 74.6484 17.9863 74.8125 18.0332V21.8828H80.1387C80.209 22.0586 80.2441 22.2754 80.2441 22.5332C80.2441 22.7559 80.209 22.9609 80.1387 23.1484H74.8125V32.5352C74.8125 34.3867 75.6621 35.3125 77.3613 35.3125C78.0059 35.3125 78.5566 35.1895 79.0137 34.9434C79.4824 34.6973 79.998 34.3281 80.5605 33.8359C80.8535 33.8711 81.0469 34.0117 81.1406 34.2578C80.625 35.1836 79.8633 35.957 78.8555 36.5781C77.8477 37.1992 76.7402 37.5098 75.5332 37.5098C72.6973 37.5098 71.2793 35.793 71.2793 32.3594V23.1484H69.1172C69.0703 22.9375 69.0469 22.8027 69.0469 22.7441C69.0469 22.7324 69.0703 22.5977 69.1172 22.3398C69.6797 22.0586 70.1074 21.8301 70.4004 21.6543C70.7051 21.4668 71.0859 21.2031 71.543 20.8633C72.0117 20.5234 72.4336 20.125 72.8086 19.668C73.1953 19.1992 73.5703 18.6543 73.9336 18.0332ZM82.7402 21.4082C83.1621 21.4316 83.584 21.4551 84.0059 21.4785C84.4277 21.502 84.7617 21.5195 85.0078 21.5312C85.2539 21.543 85.4824 21.5488 85.6934 21.5488C85.8691 21.5488 86.0742 21.543 86.3086 21.5312C86.543 21.5195 86.8594 21.502 87.2578 21.4785C87.668 21.4551 88.0605 21.4316 88.4355 21.4082C88.6465 21.4785 88.8164 21.6602 88.9453 21.9531C88.9336 22.0469 88.9102 22.1875 88.875 22.375C88.8516 22.5508 88.8281 22.7676 88.8047 23.0254C88.793 23.2715 88.7871 23.5762 88.7871 23.9395L88.752 32.2891C88.752 34.3984 89.3906 35.4531 90.668 35.4531C91.8516 35.4531 93.5332 34.6738 95.7129 33.1152C95.7129 29.623 95.6602 26.5645 95.5547 23.9395C95.5547 23.7285 95.5137 23.541 95.4316 23.377C95.3496 23.2129 95.2207 23.0723 95.0449 22.9551C94.8809 22.8379 94.7285 22.7441 94.5879 22.6738C94.459 22.5918 94.2656 22.5215 94.0078 22.4629C93.75 22.3926 93.5684 22.3516 93.4629 22.3398C93.3574 22.3164 93.1816 22.2812 92.9355 22.2344C92.8887 22.0469 92.8652 21.9062 92.8652 21.8125C92.8652 21.7305 92.8887 21.5957 92.9355 21.4082C93.3457 21.4316 93.7617 21.4551 94.1836 21.4785C94.6172 21.502 94.957 21.5195 95.2031 21.5312C95.4492 21.543 95.6777 21.5488 95.8887 21.5488C96.0645 21.5488 96.2695 21.543 96.5039 21.5312C96.7383 21.5195 97.0547 21.502 97.4531 21.4785C97.8633 21.4551 98.2559 21.4316 98.6309 21.4082C98.6895 21.4434 98.7363 21.4785 98.7715 21.5137C98.8184 21.5371 98.8535 21.5723 98.877 21.6191C98.9121 21.6543 98.9355 21.6836 98.9473 21.707C98.959 21.7188 98.9766 21.7598 99 21.8301C99.0234 21.8887 99.041 21.9297 99.0527 21.9531C98.959 22.5859 98.9121 23.248 98.9121 23.9395C98.8418 25.6621 98.8066 27.0625 98.8066 28.1406C98.8066 28.7031 98.8184 29.6465 98.8418 30.9707C98.8652 32.2949 98.877 33.4551 98.877 34.4512C99.5449 34.8379 100.67 35.0781 102.252 35.1719C102.311 35.4648 102.34 35.6172 102.34 35.6289C102.34 35.6992 102.311 35.8223 102.252 35.998C100.037 36.209 98.0566 36.6895 96.3105 37.4395C96.0059 37.3105 95.8066 37.1523 95.7129 36.9648V34.2227C94.541 35.2305 93.4336 36.0332 92.3906 36.6309C91.3594 37.2168 90.3164 37.5098 89.2617 37.5098C87.9258 37.5098 86.9766 37.1348 86.4141 36.3848C85.8633 35.6348 85.5762 34.457 85.5527 32.8516L85.4121 23.9395C85.3887 23.6699 85.3359 23.4707 85.2539 23.3418C85.1836 23.2012 85.0605 23.0723 84.8848 22.9551C84.7207 22.8379 84.5684 22.7441 84.4277 22.6738C84.2871 22.5918 84.0879 22.5215 83.8301 22.4629C83.5723 22.3926 83.3906 22.3516 83.2852 22.3398C83.1797 22.3164 82.998 22.2812 82.7402 22.2344C82.6934 22.0469 82.6699 21.9062 82.6699 21.8125C82.6699 21.7305 82.6934 21.5957 82.7402 21.4082ZM104.941 22.5332C107.215 22.2988 109.195 21.8184 110.883 21.0918C111.176 21.209 111.381 21.3613 111.498 21.5488V24.5723C111.932 23.752 112.576 22.9551 113.432 22.1816C114.299 21.4082 115.201 21.0215 116.139 21.0215C116.842 21.0215 117.41 21.2324 117.844 21.6543C118.289 22.0645 118.512 22.6328 118.512 23.3594C118.512 24.0508 118.307 24.5898 117.896 24.9766C117.486 25.3633 116.971 25.5566 116.35 25.5566C115.775 25.5566 115.301 25.375 114.926 25.0117C114.562 24.6367 114.363 24.1445 114.328 23.5352C113.836 23.7461 113.273 24.2148 112.641 24.9414C112.02 25.668 111.639 26.3887 111.498 27.1035C111.498 29.7168 111.545 32.2129 111.639 34.5918C111.65 34.8965 111.762 35.1602 111.973 35.3828C112.184 35.5938 112.494 35.7578 112.904 35.875C113.314 35.9922 113.654 36.0801 113.924 36.1387C114.193 36.1855 114.545 36.2324 114.979 36.2793C115.049 36.4199 115.084 36.5664 115.084 36.7188C115.084 36.8359 115.049 36.9648 114.979 37.1055C113.221 37.0352 111.48 37 109.758 37C108.328 37 106.84 37.0352 105.293 37.1055C105.246 36.918 105.223 36.7891 105.223 36.7188C105.223 36.6602 105.246 36.5137 105.293 36.2793C105.68 36.2324 105.996 36.1855 106.242 36.1387C106.488 36.0801 106.793 35.9922 107.156 35.875C107.52 35.7578 107.795 35.5938 107.982 35.3828C108.17 35.1602 108.27 34.8965 108.281 34.5918C108.328 33.4316 108.352 32.0254 108.352 30.373C108.352 29.8223 108.346 28.8848 108.334 27.5605C108.322 26.2363 108.316 25.0762 108.316 24.0801C107.648 23.6699 106.523 23.4297 104.941 23.3594C104.895 23.1719 104.871 23.0254 104.871 22.9199C104.871 22.8496 104.895 22.7207 104.941 22.5332ZM134.543 27.6836H124.963C124.916 28.3867 124.893 29.0078 124.893 29.5469C124.928 31.293 125.438 32.6934 126.422 33.748C127.406 34.791 128.725 35.3125 130.377 35.3125C130.822 35.3125 131.238 35.2656 131.625 35.1719C132.012 35.0664 132.328 34.9492 132.574 34.8203C132.832 34.6914 133.096 34.5039 133.365 34.2578C133.635 34.0117 133.828 33.8184 133.945 33.6777C134.074 33.5254 134.244 33.3027 134.455 33.0098C134.666 32.7051 134.807 32.5117 134.877 32.4297C135.158 32.4883 135.387 32.6172 135.562 32.8164C134.977 34.3867 134.068 35.5645 132.838 36.3496C131.607 37.123 130.271 37.5098 128.83 37.5098C128.115 37.5098 127.418 37.416 126.738 37.2285C126.07 37.0527 125.42 36.7598 124.787 36.3496C124.154 35.9395 123.604 35.4355 123.135 34.8379C122.666 34.2285 122.291 33.4727 122.01 32.5703C121.729 31.6562 121.588 30.6484 121.588 29.5469C121.588 27.0742 122.344 25.0352 123.855 23.4297C125.367 21.8242 127.225 21.0215 129.428 21.0215C130.4 21.0215 131.244 21.1621 131.959 21.4434C132.686 21.7129 133.248 22.082 133.646 22.5508C134.057 23.0195 134.355 23.5352 134.543 24.0977C134.742 24.6484 134.842 25.2402 134.842 25.873C134.842 26.459 134.742 27.0625 134.543 27.6836ZM129.006 22.1641C128.197 22.1641 127.43 22.5215 126.703 23.2363C125.988 23.9512 125.473 25.0352 125.156 26.4883H131.484C131.602 26.043 131.66 25.6562 131.66 25.3281C131.66 24.4141 131.449 23.6582 131.027 23.0605C130.605 22.4629 129.932 22.1641 129.006 22.1641ZM138.375 11.1953C140.344 11.2656 142.395 11.3008 144.527 11.3008C145.535 11.3008 146.496 11.2773 147.41 11.2305C148.324 11.1836 148.793 11.1602 148.816 11.1602C149.449 11.1602 150.029 11.1777 150.557 11.2129C151.096 11.2363 151.699 11.2949 152.367 11.3887C153.047 11.4824 153.65 11.6113 154.178 11.7754C154.705 11.9395 155.232 12.168 155.76 12.4609C156.299 12.7539 156.744 13.0996 157.096 13.498C157.459 13.8965 157.752 14.3887 157.975 14.9746C158.197 15.5605 158.309 16.2168 158.309 16.9434C158.309 19.0879 157.025 20.6992 154.459 21.7773V21.918C156.381 22.2695 157.986 23.0664 159.275 24.3086C160.576 25.5508 161.227 27.1387 161.227 29.0723C161.227 30.1035 161.039 31.0352 160.664 31.8672C160.301 32.6875 159.832 33.3672 159.258 33.9062C158.684 34.4453 157.963 34.9141 157.096 35.3125C156.229 35.7109 155.385 36.0156 154.564 36.2266C153.744 36.4375 152.801 36.6074 151.734 36.7363C150.68 36.8535 149.777 36.9297 149.027 36.9648C148.277 36.9883 147.439 37 146.514 37C143.338 37 140.613 37.0352 138.34 37.1055C138.293 36.9648 138.27 36.8477 138.27 36.7539C138.27 36.6719 138.293 36.5137 138.34 36.2793C138.691 36.2441 138.973 36.2148 139.184 36.1914C139.395 36.168 139.682 36.127 140.045 36.0684C140.42 36.0098 140.719 35.9453 140.941 35.875C141.176 35.793 141.416 35.6934 141.662 35.5762C141.908 35.459 142.09 35.3184 142.207 35.1543C142.336 34.9902 142.4 34.8027 142.4 34.5918C142.541 30.9238 142.611 27.2266 142.611 23.5C142.611 19.7031 142.553 16.4277 142.436 13.6738C142.424 13.3691 142.289 13.1113 142.031 12.9004C141.785 12.6895 141.41 12.5254 140.906 12.4082C140.402 12.291 139.998 12.2148 139.693 12.1797C139.389 12.1328 138.949 12.0801 138.375 12.0215C138.328 11.8105 138.305 11.6641 138.305 11.582C138.305 11.5117 138.328 11.3828 138.375 11.1953ZM146.32 23.5V24.8008L146.514 35.8047C147.299 35.8047 147.996 35.793 148.605 35.7695C149.215 35.7344 149.883 35.6641 150.609 35.5586C151.336 35.4414 151.969 35.2891 152.508 35.1016C153.047 34.9141 153.586 34.6562 154.125 34.3281C154.664 33.9883 155.104 33.5898 155.443 33.1328C155.783 32.6758 156.059 32.1133 156.27 31.4453C156.48 30.7656 156.586 30.0039 156.586 29.1602C156.586 28.3398 156.451 27.6074 156.182 26.9629C155.912 26.3066 155.531 25.7617 155.039 25.3281C154.559 24.8828 153.967 24.5137 153.264 24.2207C152.572 23.9277 151.816 23.7168 150.996 23.5879C150.188 23.459 149.303 23.3945 148.342 23.3945C147.674 23.3945 147 23.4297 146.32 23.5ZM146.549 12.4082L146.32 22.4277C151.102 22.4277 153.492 20.5996 153.492 16.9434C153.492 15.3496 152.994 14.1777 151.998 13.4277C151.014 12.6777 149.701 12.3027 148.061 12.3027C147.697 12.3027 147.193 12.3379 146.549 12.4082ZM178.172 27.6836H168.592C168.545 28.3867 168.521 29.0078 168.521 29.5469C168.557 31.293 169.066 32.6934 170.051 33.748C171.035 34.791 172.354 35.3125 174.006 35.3125C174.451 35.3125 174.867 35.2656 175.254 35.1719C175.641 35.0664 175.957 34.9492 176.203 34.8203C176.461 34.6914 176.725 34.5039 176.994 34.2578C177.264 34.0117 177.457 33.8184 177.574 33.6777C177.703 33.5254 177.873 33.3027 178.084 33.0098C178.295 32.7051 178.436 32.5117 178.506 32.4297C178.787 32.4883 179.016 32.6172 179.191 32.8164C178.605 34.3867 177.697 35.5645 176.467 36.3496C175.236 37.123 173.9 37.5098 172.459 37.5098C171.744 37.5098 171.047 37.416 170.367 37.2285C169.699 37.0527 169.049 36.7598 168.416 36.3496C167.783 35.9395 167.232 35.4355 166.764 34.8379C166.295 34.2285 165.92 33.4727 165.639 32.5703C165.357 31.6562 165.217 30.6484 165.217 29.5469C165.217 27.0742 165.973 25.0352 167.484 23.4297C168.996 21.8242 170.854 21.0215 173.057 21.0215C174.029 21.0215 174.873 21.1621 175.588 21.4434C176.314 21.7129 176.877 22.082 177.275 22.5508C177.686 23.0195 177.984 23.5352 178.172 24.0977C178.371 24.6484 178.471 25.2402 178.471 25.873C178.471 26.459 178.371 27.0625 178.172 27.6836ZM172.635 22.1641C171.826 22.1641 171.059 22.5215 170.332 23.2363C169.617 23.9512 169.102 25.0352 168.785 26.4883H175.113C175.23 26.043 175.289 25.6562 175.289 25.3281C175.289 24.4141 175.078 23.6582 174.656 23.0605C174.234 22.4629 173.561 22.1641 172.635 22.1641ZM183.621 25.4512C183.621 24.1621 184.207 23.1016 185.379 22.2695C186.562 21.4375 187.957 21.0215 189.562 21.0215C191.531 21.0215 192.914 21.4141 193.711 22.1992C194.52 22.9844 194.924 24.3086 194.924 26.1719V33.4668C194.924 34.123 195.164 34.4512 195.645 34.4512C196.031 34.4512 196.523 33.9824 197.121 33.0449C197.543 33.0801 197.83 33.2676 197.982 33.6074C197.9 33.7246 197.76 33.9355 197.561 34.2402C197.361 34.5449 197.215 34.7617 197.121 34.8906C197.027 35.0195 196.881 35.2188 196.682 35.4883C196.482 35.7461 196.318 35.9395 196.189 36.0684C196.072 36.1973 195.908 36.3496 195.697 36.5254C195.498 36.7012 195.311 36.8359 195.135 36.9297C194.971 37.0117 194.777 37.082 194.555 37.1406C194.332 37.2109 194.109 37.2461 193.887 37.2461C193.301 37.2461 192.814 37.0352 192.428 36.6133C192.053 36.1914 191.83 35.541 191.76 34.6621C191.748 34.6738 191.566 34.8438 191.215 35.1719C190.863 35.5 190.617 35.7227 190.477 35.8398C190.348 35.9453 190.096 36.1387 189.721 36.4199C189.357 36.6895 189.047 36.8828 188.789 37C188.531 37.1172 188.209 37.2285 187.822 37.334C187.436 37.4512 187.055 37.5098 186.68 37.5098C186.082 37.5098 185.549 37.4277 185.08 37.2637C184.623 37.0996 184.266 36.9004 184.008 36.666C183.75 36.4316 183.539 36.1621 183.375 35.8574C183.211 35.541 183.1 35.2539 183.041 34.9961C182.994 34.7383 182.971 34.4805 182.971 34.2227C182.971 33.4375 183.1 32.7754 183.357 32.2363C183.627 31.6973 184.119 31.1934 184.834 30.7246C185.561 30.2559 186.451 29.8398 187.506 29.4766C188.561 29.1133 189.979 28.7031 191.76 28.2461V25.8027C191.76 24.6191 191.496 23.7344 190.969 23.1484C190.453 22.5625 189.756 22.2695 188.877 22.2695C188.092 22.2695 187.43 22.4277 186.891 22.7441C186.363 23.0488 186.041 23.4062 185.924 23.8164C187.072 23.9922 187.646 24.6191 187.646 25.6973C187.646 26.1895 187.471 26.623 187.119 26.998C186.768 27.373 186.275 27.5605 185.643 27.5605C185.115 27.5605 184.646 27.3789 184.236 27.0156C183.826 26.6406 183.621 26.1191 183.621 25.4512ZM191.76 33.0449V29.3711C190.682 29.6172 189.791 29.8867 189.088 30.1797C188.385 30.4609 187.846 30.7715 187.471 31.1113C187.107 31.4512 186.855 31.8027 186.715 32.166C186.574 32.5176 186.504 32.9277 186.504 33.3965C186.504 33.9824 186.674 34.4453 187.014 34.7852C187.365 35.1133 187.793 35.2773 188.297 35.2773C189.469 35.2773 190.623 34.5332 191.76 33.0449ZM205.207 18.0332C205.324 17.9863 205.459 17.9629 205.611 17.9629C205.764 17.9629 205.922 17.9863 206.086 18.0332V21.8828H211.412C211.482 22.0586 211.518 22.2754 211.518 22.5332C211.518 22.7559 211.482 22.9609 211.412 23.1484H206.086V32.5352C206.086 34.3867 206.936 35.3125 208.635 35.3125C209.279 35.3125 209.83 35.1895 210.287 34.9434C210.756 34.6973 211.271 34.3281 211.834 33.8359C212.127 33.8711 212.32 34.0117 212.414 34.2578C211.898 35.1836 211.137 35.957 210.129 36.5781C209.121 37.1992 208.014 37.5098 206.807 37.5098C203.971 37.5098 202.553 35.793 202.553 32.3594V23.1484H200.391C200.344 22.9375 200.32 22.8027 200.32 22.7441C200.32 22.7324 200.344 22.5977 200.391 22.3398C200.953 22.0586 201.381 21.8301 201.674 21.6543C201.979 21.4668 202.359 21.2031 202.816 20.8633C203.285 20.5234 203.707 20.125 204.082 19.668C204.469 19.1992 204.844 18.6543 205.207 18.0332Z" fill="url(#paint0_linear_16_8)" fill-opacity="0.82"/>
<defs>
<linearGradient id="paint0_linear_16_8" x1="106.5" y1="0" x2="106.5" y2="47" gradientUnits="userSpaceOnUse">
<stop offset="0.411458" stop-color="#FFE279"/>
<stop offset="0.796875" stop-color="#FF3D00" stop-opacity="0.56"/>
</linearGradient>
</defs>
</svg>
